<?xml version="1.0" encoding="utf-8"?>
<!-- Generator: Adobe Illustrator 15.1.0, SVG Export Plug-In . SVG Version: 6.00 Build 0)  -->
<!DOCTYPE svg PUBLIC "-//W3C//DTD SVG 1.1//EN" "http://www.w3.org/Graphics/SVG/1.1/DTD/svg11.dtd">
<svg version="1.1" id="Layer_1" xmlns="http://www.w3.org/2000/svg" xmlns:xlink="http://www.w3.org/1999/xlink" x="0px" y="0px"
	 width="87.891px" height="87.932px" viewBox="0 0 87.891 87.932" enable-background="new 0 0 87.891 87.932" xml:space="preserve">
<g id="Layer_1_1_">
	<g display="none" opacity="0.4">

			<linearGradient id="SVGID_1_" gradientUnits="userSpaceOnUse" x1="108.8645" y1="617.2395" x2="130.1988" y2="648.9915" gradientTransform="matrix(1 0 0 1 8 -523.0684)">
			<stop  offset="0" style="stop-color:#946700"/>
			<stop  offset="0.0434" style="stop-color:#AE7400"/>
			<stop  offset="0.1359" style="stop-color:#F19500"/>
			<stop  offset="0.1538" style="stop-color:#FF9C00"/>
			<stop  offset="0.1613" style="stop-color:#FA9902"/>
			<stop  offset="0.2067" style="stop-color:#DE8A0F"/>
			<stop  offset="0.2526" style="stop-color:#CB7F19"/>
			<stop  offset="0.2989" style="stop-color:#BF781E"/>
			<stop  offset="0.3462" style="stop-color:#BB7620"/>
			<stop  offset="0.3907" style="stop-color:#98601A"/>
			<stop  offset="0.4661" style="stop-color:#623E11"/>
			<stop  offset="0.5365" style="stop-color:#38230A"/>
			<stop  offset="0.5997" style="stop-color:#191004"/>
			<stop  offset="0.6535" style="stop-color:#070401"/>
			<stop  offset="0.6914" style="stop-color:#000000"/>
			<stop  offset="0.7515" style="stop-color:#030200"/>
			<stop  offset="0.8019" style="stop-color:#0E0A00"/>
			<stop  offset="0.8489" style="stop-color:#1F1600"/>
			<stop  offset="0.8938" style="stop-color:#382700"/>
			<stop  offset="0.9373" style="stop-color:#573D00"/>
			<stop  offset="0.979" style="stop-color:#7E5700"/>
			<stop  offset="1" style="stop-color:#946700"/>
		</linearGradient>
		<polygon display="inline" fill="url(#SVGID_1_)" points="151.051,117.598 151.965,116.99 151.965,70.914 81.879,117.598 		"/>

			<linearGradient id="SVGID_2_" gradientUnits="userSpaceOnUse" x1="36.6702" y1="568.9915" x2="58.3898" y2="601.3168" gradientTransform="matrix(1 0 0 1 8 -523.0684)">
			<stop  offset="0" style="stop-color:#946700"/>
			<stop  offset="0.0434" style="stop-color:#AE7400"/>
			<stop  offset="0.1359" style="stop-color:#F19500"/>
			<stop  offset="0.1538" style="stop-color:#FF9C00"/>
			<stop  offset="0.1613" style="stop-color:#FA9902"/>
			<stop  offset="0.2067" style="stop-color:#DE8A0F"/>
			<stop  offset="0.2526" style="stop-color:#CB7F19"/>
			<stop  offset="0.2989" style="stop-color:#BF781E"/>
			<stop  offset="0.3462" style="stop-color:#BB7620"/>
			<stop  offset="0.3907" style="stop-color:#98601A"/>
			<stop  offset="0.4661" style="stop-color:#623E11"/>
			<stop  offset="0.5365" style="stop-color:#38230A"/>
			<stop  offset="0.5997" style="stop-color:#191004"/>
			<stop  offset="0.6535" style="stop-color:#070401"/>
			<stop  offset="0.6914" style="stop-color:#000000"/>
			<stop  offset="0.7515" style="stop-color:#030200"/>
			<stop  offset="0.8019" style="stop-color:#0E0A00"/>
			<stop  offset="0.8489" style="stop-color:#1F1600"/>
			<stop  offset="0.8938" style="stop-color:#382700"/>
			<stop  offset="0.9373" style="stop-color:#573D00"/>
			<stop  offset="0.979" style="stop-color:#7E5700"/>
			<stop  offset="1" style="stop-color:#946700"/>
		</linearGradient>
		<polygon display="inline" fill="url(#SVGID_2_)" points="151.965,21.073 151.965,-25.002 -62.121,117.598 7.051,117.598 		"/>

			<linearGradient id="SVGID_3_" gradientUnits="userSpaceOnUse" x1="13.9553" y1="536.2844" x2="35.6196" y2="568.5275" gradientTransform="matrix(1 0 0 1 8 -523.0684)">
			<stop  offset="0" style="stop-color:#946700"/>
			<stop  offset="0.0434" style="stop-color:#AE7400"/>
			<stop  offset="0.1359" style="stop-color:#F19500"/>
			<stop  offset="0.1538" style="stop-color:#FF9C00"/>
			<stop  offset="0.1613" style="stop-color:#FA9902"/>
			<stop  offset="0.2067" style="stop-color:#DE8A0F"/>
			<stop  offset="0.2526" style="stop-color:#CB7F19"/>
			<stop  offset="0.2989" style="stop-color:#BF781E"/>
			<stop  offset="0.3462" style="stop-color:#BB7620"/>
			<stop  offset="0.3907" style="stop-color:#98601A"/>
			<stop  offset="0.4661" style="stop-color:#623E11"/>
			<stop  offset="0.5365" style="stop-color:#38230A"/>
			<stop  offset="0.5997" style="stop-color:#191004"/>
			<stop  offset="0.6535" style="stop-color:#070401"/>
			<stop  offset="0.6914" style="stop-color:#000000"/>
			<stop  offset="0.7515" style="stop-color:#030200"/>
			<stop  offset="0.8019" style="stop-color:#0E0A00"/>
			<stop  offset="0.8489" style="stop-color:#1F1600"/>
			<stop  offset="0.8938" style="stop-color:#382700"/>
			<stop  offset="0.9373" style="stop-color:#573D00"/>
			<stop  offset="0.979" style="stop-color:#7E5700"/>
			<stop  offset="1" style="stop-color:#946700"/>
		</linearGradient>
		<polygon display="inline" fill="url(#SVGID_3_)" points="81.879,-26.402 -64.035,70.914 -64.035,116.988 151.051,-26.402 		"/>

			<linearGradient id="SVGID_4_" gradientUnits="userSpaceOnUse" x1="-21.948" y1="512.4504" x2="-0.4757" y2="544.4075" gradientTransform="matrix(1 0 0 1 8 -523.0684)">
			<stop  offset="0" style="stop-color:#946700"/>
			<stop  offset="0.0434" style="stop-color:#AE7400"/>
			<stop  offset="0.1359" style="stop-color:#F19500"/>
			<stop  offset="0.1538" style="stop-color:#FF9C00"/>
			<stop  offset="0.1613" style="stop-color:#FA9902"/>
			<stop  offset="0.2067" style="stop-color:#DE8A0F"/>
			<stop  offset="0.2526" style="stop-color:#CB7F19"/>
			<stop  offset="0.2989" style="stop-color:#BF781E"/>
			<stop  offset="0.3462" style="stop-color:#BB7620"/>
			<stop  offset="0.3907" style="stop-color:#98601A"/>
			<stop  offset="0.4661" style="stop-color:#623E11"/>
			<stop  offset="0.5365" style="stop-color:#38230A"/>
			<stop  offset="0.5997" style="stop-color:#191004"/>
			<stop  offset="0.6535" style="stop-color:#070401"/>
			<stop  offset="0.6914" style="stop-color:#000000"/>
			<stop  offset="0.7515" style="stop-color:#030200"/>
			<stop  offset="0.8019" style="stop-color:#0E0A00"/>
			<stop  offset="0.8489" style="stop-color:#1F1600"/>
			<stop  offset="0.8938" style="stop-color:#382700"/>
			<stop  offset="0.9373" style="stop-color:#573D00"/>
			<stop  offset="0.979" style="stop-color:#7E5700"/>
			<stop  offset="1" style="stop-color:#946700"/>
		</linearGradient>
		<polygon display="inline" fill="url(#SVGID_4_)" points="9.88,-26.402 -64.035,22.956 -64.035,69.031 79.051,-26.402 		"/>

			<linearGradient id="SVGID_5_" gradientUnits="userSpaceOnUse" x1="72.7678" y1="593.1165" x2="94.2945" y2="625.1548" gradientTransform="matrix(1 0 0 1 8 -523.0684)">
			<stop  offset="0" style="stop-color:#946700"/>
			<stop  offset="0.0434" style="stop-color:#AE7400"/>
			<stop  offset="0.1359" style="stop-color:#F19500"/>
			<stop  offset="0.1538" style="stop-color:#FF9C00"/>
			<stop  offset="0.1613" style="stop-color:#FA9902"/>
			<stop  offset="0.2067" style="stop-color:#DE8A0F"/>
			<stop  offset="0.2526" style="stop-color:#CB7F19"/>
			<stop  offset="0.2989" style="stop-color:#BF781E"/>
			<stop  offset="0.3462" style="stop-color:#BB7620"/>
			<stop  offset="0.3907" style="stop-color:#98601A"/>
			<stop  offset="0.4661" style="stop-color:#623E11"/>
			<stop  offset="0.5365" style="stop-color:#38230A"/>
			<stop  offset="0.5997" style="stop-color:#191004"/>
			<stop  offset="0.6535" style="stop-color:#070401"/>
			<stop  offset="0.6914" style="stop-color:#000000"/>
			<stop  offset="0.7515" style="stop-color:#030200"/>
			<stop  offset="0.8019" style="stop-color:#0E0A00"/>
			<stop  offset="0.8489" style="stop-color:#1F1600"/>
			<stop  offset="0.8938" style="stop-color:#382700"/>
			<stop  offset="0.9373" style="stop-color:#573D00"/>
			<stop  offset="0.979" style="stop-color:#7E5700"/>
			<stop  offset="1" style="stop-color:#946700"/>
		</linearGradient>
		<polygon display="inline" fill="url(#SVGID_5_)" points="79.051,117.598 151.965,69.031 151.965,22.956 9.879,117.598 		"/>

			<linearGradient id="SVGID_6_" gradientUnits="userSpaceOnUse" x1="-57.9041" y1="488.5364" x2="-36.5711" y2="520.2864" gradientTransform="matrix(1 0 0 1 8 -523.0684)">
			<stop  offset="0" style="stop-color:#946700"/>
			<stop  offset="0.0434" style="stop-color:#AE7400"/>
			<stop  offset="0.1359" style="stop-color:#F19500"/>
			<stop  offset="0.1538" style="stop-color:#FF9C00"/>
			<stop  offset="0.1613" style="stop-color:#FA9902"/>
			<stop  offset="0.2067" style="stop-color:#DE8A0F"/>
			<stop  offset="0.2526" style="stop-color:#CB7F19"/>
			<stop  offset="0.2989" style="stop-color:#BF781E"/>
			<stop  offset="0.3462" style="stop-color:#BB7620"/>
			<stop  offset="0.3907" style="stop-color:#98601A"/>
			<stop  offset="0.4661" style="stop-color:#623E11"/>
			<stop  offset="0.5365" style="stop-color:#38230A"/>
			<stop  offset="0.5997" style="stop-color:#191004"/>
			<stop  offset="0.6535" style="stop-color:#070401"/>
			<stop  offset="0.6914" style="stop-color:#000000"/>
			<stop  offset="0.7515" style="stop-color:#030200"/>
			<stop  offset="0.8019" style="stop-color:#0E0A00"/>
			<stop  offset="0.8489" style="stop-color:#1F1600"/>
			<stop  offset="0.8938" style="stop-color:#382700"/>
			<stop  offset="0.9373" style="stop-color:#573D00"/>
			<stop  offset="0.979" style="stop-color:#7E5700"/>
			<stop  offset="1" style="stop-color:#946700"/>
		</linearGradient>
		<polygon display="inline" fill="url(#SVGID_6_)" points="-62.121,-26.402 -64.035,-25.002 -64.035,21.073 7.052,-26.402 		"/>
	</g>
</g>
<g id="Layer_3">
</g>
<g id="Layer_4">
</g>
<g>
	<defs>
		<circle id="SVGID_7_" cx="43.965" cy="43.966" r="43.965"/>
	</defs>
	<clipPath id="SVGID_8_">
		<use xlink:href="#SVGID_7_"  overflow="visible"/>
	</clipPath>
	<g id="Layer_2" clip-path="url(#SVGID_8_)">
		<g>
			<g>
				<g>
					<defs>
						<circle id="SVGID_9_" cx="43.965" cy="43.965" r="43.965"/>
					</defs>
					<clipPath id="SVGID_10_">
						<use xlink:href="#SVGID_9_"  overflow="visible"/>
					</clipPath>
					<path clip-path="url(#SVGID_10_)" fill="#A1C6FF" d="M87.978,43.536c0,19.484-19.64,43.867-43.868,43.867
						c-24.228,0-43.866-24.382-43.866-43.867c0-24.229,19.641-43.868,43.866-43.868C68.337-0.332,87.978,19.309,87.978,43.536z"/>
				</g>
			</g>
			<g>
				<g>
					<defs>
						<circle id="SVGID_11_" cx="43.965" cy="43.965" r="43.965"/>
					</defs>
					<clipPath id="SVGID_12_">
						<use xlink:href="#SVGID_11_"  overflow="visible"/>
					</clipPath>
					<path clip-path="url(#SVGID_12_)" fill="#394A34" d="M-7.464,24.566c39.263,1.899,39.207,1.884,45.182,3.875
						c5.928,1.977,25.065-5.645,31.852-6.642c26.873-3.952,13.637,4.292,13.637,4.292l3.557,13.689l-97.813-5.139L-7.464,24.566z"/>
				</g>
			</g>
			<g>
				<g>
					<defs>
						<circle id="SVGID_13_" cx="43.965" cy="43.965" r="43.965"/>
					</defs>
					<clipPath id="SVGID_14_">
						<use xlink:href="#SVGID_13_"  overflow="visible"/>
					</clipPath>
					<path clip-path="url(#SVGID_14_)" fill="#878256" d="M52.379,30.441c1.229-0.183,6.003-1.386,8.081-1.731
						c2.078-0.347,2.655-0.115,3.81-0.462s5.694-2.842,10.313-3.304c4.618-0.462,11.368,0.873,14.944,1.797
						c3.579,0.923,2.102,14.552,2.102,14.552c-1.1-3.241,8.054,19.042,5.014,23.189c-32.012,43.67-69.773,20.445-78.317,19.64
						c-1.592-0.151-35.354-40.534-20.88-55.01C0.074,26.482,38.79,32.445,52.379,30.441z"/>
				</g>
			</g>
			<g>
				<g>
					<defs>
						<circle id="SVGID_15_" cx="43.965" cy="43.965" r="43.965"/>
					</defs>
					<clipPath id="SVGID_16_">
						<use xlink:href="#SVGID_15_"  overflow="visible"/>
					</clipPath>
					<path clip-path="url(#SVGID_16_)" fill="#878256" d="M83.872,39.556c-0.688-5.271-20.994-3.377-41.54-1.933
						c-14.957,1.052-37.975,2.354-37.775,5.912c0.254,4.576,4.162,2.023,3.557,5.335c-0.326,1.794-8.096,4.845-0.533,7.301
						c9.345,3.035,23.93,0.6,34.753,1.295c2.476,0.159,5.384-1.435,8.464-1.3c6.257,0.271,3.357,2.584,18.703,1.321
						c9.065-0.746,14.378-4.646,14.698-7.359c0.551-4.661-4.931-0.457-4.354-4.813C80.417,40.957,84.42,43.777,83.872,39.556z"/>
				</g>
			</g>
			<g>
				<g>
					<defs>
						<circle id="SVGID_17_" cx="43.965" cy="43.965" r="43.965"/>
					</defs>
					<clipPath id="SVGID_18_">
						<use xlink:href="#SVGID_17_"  overflow="visible"/>
					</clipPath>
					<path clip-path="url(#SVGID_18_)" fill="#878256" d="M12.963,44.883c0.188-2,15.606-4.292,21.236-4.311
						c7.537-0.027,23.358-2.45,27.223-2.035c3.863,0.414,16.005,0.783,16.143,2.875c0.14,2.092-5.655,4.438-5.243,6.507
						c0.414,2.068,7.88,0.067,7.326,2.14c-0.552,2.067-10.271,5.374-15.413,5.729c-5.729,0.396-7.041-2.861-10.076-2.767
						c-7.69,0.239-19.364,1.777-25.237,1.021c-4.589-0.591-13.476-1.968-14.025-3.762c-0.552-1.794-0.521-0.862-0.797-2.226
						C13.821,46.692,12.687,47.781,12.963,44.883z"/>
				</g>
			</g>
			<g>
				<g>
					<defs>
						<circle id="SVGID_19_" cx="43.965" cy="43.965" r="43.965"/>
					</defs>
					<clipPath id="SVGID_20_">
						<use xlink:href="#SVGID_19_"  overflow="visible"/>
					</clipPath>
					<path opacity="0.5" clip-path="url(#SVGID_20_)" fill="#FFFFFF" enable-background="new    " d="M43.011,12.612
						c0.661,2.515-2.964,4.939-8.102,5.729c-5.141,0.791-11.857,0.594-14.623,0c-2.768-0.593-9.805-1.778-9.805-1.778l-1.263-5.729
						c0,0,12.252-4.743,15.414-4.545c3.162,0.197,8.496,0.197,9.879,1.383C35.897,8.857,42.023,8.858,43.011,12.612z"/>
				</g>
			</g>
			<g>
				<g>
					<defs>
						<circle id="SVGID_21_" cx="43.965" cy="43.965" r="43.965"/>
					</defs>
					<clipPath id="SVGID_22_">
						<use xlink:href="#SVGID_21_"  overflow="visible"/>
					</clipPath>
					<path opacity="0.6" clip-path="url(#SVGID_22_)" fill="#FFFFFF" enable-background="new    " d="M41.43,12.216
						c0,0,0,2.569-3.162,3.952c-3.161,1.383-16.203,1.187-19.76,0.593c-3.557-0.593,0.197-5.928,3.161-6.916
						c2.964-0.987,12.054,0.988,13.635,1.188C36.885,11.231,40.836,10.438,41.43,12.216z"/>
				</g>
			</g>
			<g>
				<g>
					<defs>
						<circle id="SVGID_23_" cx="43.965" cy="43.965" r="43.965"/>
					</defs>
					<clipPath id="SVGID_24_">
						<use xlink:href="#SVGID_23_"  overflow="visible"/>
					</clipPath>
					<path opacity="0.5" clip-path="url(#SVGID_24_)" fill="#FFFFFF" enable-background="new    " d="M50.953,17.337
						c-0.661,2.514,3.615,4.074,8.755,4.865c5.137,0.791,9.584-2.074,12.35-2.667c2.768-0.593,11.936,0.289,11.936,0.289
						l-0.868-7.798c0,0-10.771-7.213-13.933-7.017c-3.159,0.198-7.508,4.743-8.893,5.929C58.917,12.124,51.941,13.583,50.953,17.337
						z"/>
				</g>
			</g>
			<g>
				<g>
					<defs>
						<circle id="SVGID_25_" cx="43.965" cy="43.965" r="43.965"/>
					</defs>
					<clipPath id="SVGID_26_">
						<use xlink:href="#SVGID_25_"  overflow="visible"/>
					</clipPath>
					<path clip-path="url(#SVGID_26_)" fill="#878256" d="M74.461,45.573c-1.712,0.036-3.284,0-4.183-0.192
						c-2.766-0.593-7.213-3.457-12.351-2.667s-9.416,2.353-8.755,4.864c0.988,3.755,7.964,5.214,9.348,6.399
						c0.49,0.419,1.354,1.259,2.4,2.179c0.923,0.209,1.997,0.315,3.312,0.226c5.143-0.354,14.861-3.661,15.413-5.729
						c0.554-2.069-6.912-0.068-7.326-2.138C72.133,47.571,73.226,46.576,74.461,45.573z"/>
				</g>
			</g>
			<g>
				<g>
					<defs>
						<circle id="SVGID_27_" cx="43.965" cy="43.965" r="43.965"/>
					</defs>
					<clipPath id="SVGID_28_">
						<use xlink:href="#SVGID_27_"  overflow="visible"/>
					</clipPath>
					<path clip-path="url(#SVGID_28_)" fill="#878256" d="M38.268,48.153c-3.161-1.383-16.203-1.186-19.76-0.593
						c-2.338,0.392-1.517,2.829,0.163,4.734c4.088,0.797,9.372,1.401,12.028,1.745c0.038,0.006,0.08,0.009,0.119,0.015
						c2.101-0.338,3.866-0.688,4.484-0.764c1.581-0.198,5.533,0.592,6.126-1.187C41.43,52.106,41.43,49.536,38.268,48.153z"/>
				</g>
			</g>
			<g>
				<g>
					<defs>
						<circle id="SVGID_29_" cx="43.965" cy="43.965" r="43.965"/>
					</defs>
					<clipPath id="SVGID_30_">
						<use xlink:href="#SVGID_29_"  overflow="visible"/>
					</clipPath>
					<path clip-path="url(#SVGID_30_)" fill="#878256" d="M33.13,45.388c-5.137-0.791-11.856-0.594-14.622,0
						c-1.479,0.315-0.611,0.801-2.801,1.187c0.961,0.181-1.726,0.323-1.61,0.888c0.276,1.363,0.246,0.433,0.797,2.226
						c0.551,1.794,9.438,3.17,14.025,3.763c2.655,0.343,6.498,0.216,10.621-0.048c0.801-0.562,1.43-1.287,1.69-2.282
						C41.894,48.604,38.269,46.177,33.13,45.388z"/>
				</g>
			</g>
			<g>
				<g>
					<defs>
						<circle id="SVGID_31_" cx="43.965" cy="43.965" r="43.965"/>
					</defs>
					<clipPath id="SVGID_32_">
						<use xlink:href="#SVGID_31_"  overflow="visible"/>
					</clipPath>
					<path clip-path="url(#SVGID_32_)" fill="#4B7D31" d="M-5.817,36.719c0,0,18.673-2.964,24.305-3.557
						c7.422-0.781,10.2-2.438,10.078-3.261c-0.331-2.215-22.854-6.816-30.101-8.299S-5.817,36.719-5.817,36.719z"/>
				</g>
			</g>
			<g>
				<g>
					<defs>
						<circle id="SVGID_33_" cx="43.965" cy="43.965" r="43.965"/>
					</defs>
					<clipPath id="SVGID_34_">
						<use xlink:href="#SVGID_33_"  overflow="visible"/>
					</clipPath>
					<path clip-path="url(#SVGID_34_)" fill="#4B7D31" d="M87.846,31.087c0,0-15.117-2.371-15.413-5.039
						C72.136,23.381,90.217,21.9,90.217,21.9L87.846,31.087z"/>
				</g>
			</g>
			<g>
				<g>
					<defs>
						<circle id="SVGID_35_" cx="43.965" cy="43.965" r="43.965"/>
					</defs>
					<clipPath id="SVGID_36_">
						<use xlink:href="#SVGID_35_"  overflow="visible"/>
					</clipPath>
					<path clip-path="url(#SVGID_36_)" fill="#878256" d="M-1.964,61.617c0,0,57.499,10.825,71.727,16.16
						c14.229,5.335,14.955,14.962,18.215,15.555s-90.832,2.964-90.832,2.964L-1.964,61.617z"/>
				</g>
			</g>
		</g>
	</g>
	<path clip-path="url(#SVGID_8_)" fill="#706130" d="M-6.221,51.216c0.112-0.271,0.126-0.689,0.186-1.04
		c0.169-0.999,0.659-1.836,1.164-2.71c1.22-2.11,2.98-2.921,5.201-3.782c2.968-1.152,6.382-1.384,9.55-1.384
		c1.688,0,3.41,0.1,5.095,0.004c1.263-0.071,2.35-0.573,3.513-1.027c2.475-0.967,4.77-2.17,7.086-3.458
		c2.327-1.293,4.676-2.358,7.356-2.602c2.462-0.224,5.065-0.165,7.506,0.185c1.863,0.267,4.248,0.982,5.661,2.271
		c2.254,2.055,3.892,4.759,6.923,5.668c5.126,1.538,10.673-0.016,15.712,2.098c2.242,0.941,3.673,2.203,5.53,3.714
		c2.269,1.844,4.276,3.685,5.513,6.355c1.438,3.107,0.3,7.06-1.662,9.708c-0.605,0.817-1.306,1.477-1.833,2.336
		c-0.436,0.709-0.9,1.451-1.512,2.021c-1.451,1.352-2.968,2.508-4.212,4.04c-1.474,1.816-3.047,3.762-3.993,5.918
		c-0.459,1.043-0.788,2.235-1.114,3.329c-0.336,1.126-1.034,2.148-1.543,3.212c-0.468,0.975-0.656,1.95-1.512,2.685
		c-0.598,0.514-1.324,0.785-1.923,1.305c-1.147,0.993-2.271,1.644-3.675,2.242c-3.751,1.6-7.539,2.701-11.561,3.29
		c-9.161,1.344-17.517-2.258-26.172-4.635c-2.262-0.621-4.585-0.983-6.861-1.598c-2.205-0.596-4.451-0.654-6.709-0.91
		c-3.543-0.402-7.685-0.315-10.561-2.901c-2.628-2.365-3.562-5.995-4.466-9.255c-0.685-2.467-0.853-5.388-0.12-7.867
		c0.927-3.136,2.913-5.872,3.771-9.027c0.313-1.149,0.373-2.43,0.562-3.6c0.217-1.348,1.355-3.832-0.125-4.854
		c-0.22-0.152-0.305-0.258-0.606-0.229"/>
	<path clip-path="url(#SVGID_8_)" fill="#4D402E" d="M7.529,91.133c-0.886-2.122-1.394-4.325-0.484-6.518
		c1.025-2.471,2.614-4.604,4.902-6.005c1.151-0.704,2.196-1.504,3.554-1.727c1.587-0.262,3.2-0.182,4.799-0.103
		c3.443,0.171,7.301,0.444,10.59-0.828c4.899-1.894,7.361-6.797,11.384-9.797c2.008-1.497,4.099-2.849,6.441-3.775
		c2.283-0.902,4.622-1.14,7.049-1.336c1.721-0.139,3.356-0.269,4.935,0.583c2.464,1.329,4.831,2.737,7.641,3.106
		c1.65,0.218,3.284,0.467,4.952,0.481c2.049,0.018,3.938-0.464,5.938-0.877c3.094-0.64,5.889-1.772,9.072-1.958
		c1.986-0.116,4.06-0.345,6.057-0.165c1.104,0.1,2.044,0.722,2.996,1.248c3.078,1.702,6.069,3.58,6.489,7.34
		c0.186,1.665-1.332,3.272-2.748,3.998c-0.899,0.461-1.936,0.787-2.892,1.076c-1.466,0.443-2.881,1.071-4.332,1.527
		c-2.692,0.846-5.533,1.707-8.003,3.075c-1.854,1.027-3.096,2.621-4.155,4.36c-0.715,1.176-0.957,2.5-1.699,3.7
		c-0.724,1.171-2.049,2.037-3.336,2.571c-1.954,0.813-3.811,0.954-5.921,1.225c-1.323,0.17-2.574,0.495-3.912,0.548
		c-1.652,0.064-3.319-0.002-4.973-0.002c-2.329,0-4.653,0.086-6.978,0.083c-2.928-0.004-5.761-0.425-8.669-0.666
		c-3.198-0.266-6.366-0.475-9.571-0.58c-2.632-0.087-5.58,0.156-8.172-0.264c-3.03-0.49-6.04-0.572-9.117-0.573
		c-2.37,0-4.677,0.283-7.025,0.333c-1.853,0.039-3.622-0.32-5.396-0.333"/>
	<path clip-path="url(#SVGID_8_)" fill="#6E5433" d="M93.196,32.55c0.249,0.409,0.443,1.353,0.237,1.823
		c-0.368,0.843-1.443,0.68-2.235,0.677c-1.17-0.004-2.455,0.082-3.605-0.179c-1.252-0.283-2.531-1.004-3.723-1.489
		c-3.507-1.43-7.117-2.516-11.011-2.415c-0.834,0.021-2.178-0.124-2.748,0.583c-0.462,0.572-0.496,1.8,0.022,2.377
		c0.84,0.934,2.602,0.953,3.235,2.125c0.345,0.637,0.298,1.486,0.098,2.075c-0.707,2.081-3.497,2.261-5.436,1.823
		c-1.495-0.338-2.885-1.212-4.394-1.543c-1.562-0.343-3.039-0.69-4.648-0.69c-1.271,0-2.059,0.171-3.212,0.669
		c-1.388,0.599-3.3,1.68-4.102,2.994c-0.648,1.063-1.137,2.447-1.336,3.671c-0.253,1.56,1.039,3.371,2.194,4.342
		c0.794,0.666,1.77,1.328,2.763,1.646c1.341,0.428,2.883,0.169,4.262,0.427c2.677,0.5,4.985,1.249,7.439,2.394
		c1.672,0.779,3.248,1.741,4.881,2.596c1.433,0.751,3.013,1.403,4.09,2.678c0.71,0.839,0.671,2.503,0.969,3.538
		c0.692,2.413,1.177,6.229,4.211,6.545c5.094,0.528,10.398-1.033,15.182-2.579c2.941-0.951,6.207-1.99,8.746-3.826
		c2.206-1.595,4.41-4.856,4.601-7.591c0.504-7.226-3.127-14.886-9.006-19.107c-1.65-1.185-3.545-2.335-5.309-3.27
		c-0.571-0.303-1.649-1.044-2.249-0.708"/>
	<path clip-path="url(#SVGID_8_)" fill="none" d="M-4.471,37.3c1.497-0.053,3.385-1.046,4.856-1.483
		c1.367-0.406,2.725-0.888,4.213-1.104c3.147-0.457,6.367-0.395,9.427-1.167c2.647-0.669,5.392-0.874,8.011-1.493
		c2.681-0.634,5.219-1.836,8.091-1.836c3.319,0,6.45,0.342,9.736,0.504c1.533,0.076,2.999-0.263,4.478-0.337
		c1.927-0.097,3.924,0.192,5.843,0.334c1.733,0.128,3.212-0.594,4.846-0.921c1.343-0.269,2.642-0.624,3.936-0.979
		c1.662-0.457,3.665-0.044,3.481,1.986c-0.12,1.326-2.097,2.039-3.167,2.644c-1.192,0.674-2.522,1.387-3.437,2.415
		c-0.887,0.995-1.292,2.125-1.743,3.356c-1.669,4.552-2.079,10.09-6.062,13.522c-2.511,2.163-5.81,3.901-8.999,4.711
		c-2.243,0.569-4.432,1.51-6.735,1.679c-2.647,0.194-5.042,1.009-7.77,0.675c-2.877-0.352-5.716-1.172-8.581-1.592
		c-3.873-0.568-8.426-1.197-12.267-0.16c-1.684,0.455-3.133,1.431-4.817,1.914c-1.569,0.451-3.229,0.658-4.853,0.663
		c-1.525,0.004-3.28,0.384-4.764-0.119c-2.251-0.762-2.392-2.609-2.39-4.706c0.001-1.152-0.115-2.366-0.004-3.512
		c0.09-0.933,0.522-1.728,0.815-2.594c1.12-3.314,2.409-6.705,4.789-9.359c0.604-0.674,1.302-1.546,2.022-2.105
		c0.435-0.337,1.247-0.383,1.211-1.021"/>
	<path clip-path="url(#SVGID_8_)" fill="#7A6947" d="M-11.804,40.466c0.842-0.541,1.363-1.482,2.274-1.9
		c1.277-0.585,3.231-0.412,4.585-0.276c2.942,0.293,7.834,1.01,9.809,3.655c1.763,2.362,3.667,5.27,6.74,6.146
		c1.858,0.529,3.867,0.291,5.713,0.89c2.674,0.868,5.591,1.873,7.995,3.312c0.907,0.542,1.434,0.891,1.913,1.749
		c0.555,0.993,0.771,1.916,0.991,3.013c0.12,0.597,0.442,1.271,0.297,1.896c-0.183,0.791-1.079,1.428-1.632,1.93
		c-2.824,2.562-5.548,5.811-9.16,7.32c-1.673,0.699-3.557,1.188-4.761,2.698c-1.436,1.803-2.436,3.647-3.656,5.612
		c-1.151,1.854-2.019,3.97-3.151,5.871c-0.726,1.218-1.193,2.268-2.144,3.378c-1.11,1.297-2.413,2.271-3.897,3.105
		c-3.988,2.242-8.259,3.648-12.852,3.604c-1.757-0.017-4.397,0.086-4.652-2.151c-0.319-2.803-0.254-6.037,0.29-8.803
		c0.993-5.047,2.937-9.973,3.388-15.128c0.307-3.499-0.094-7.034-0.091-10.539c0.002-2.284-0.168-4.821,0.645-7
		c0.742-1.989,7.153-8.521,1.439-8.548"/>
	<circle clip-path="url(#SVGID_8_)" fill="none" cx="43.965" cy="43.965" r="43.965"/>
</g>
</svg>
